<svg width="151" height="64" viewBox="0 0 151 64" fill="none" xmlns="http://www.w3.org/2000/svg">
<path d="M13.7528 23.1995H8.5498V28.4025H13.7528V23.1995Z" fill="#30C1FF"/>
<path opacity="0.9" d="M26.922 17H17.0129C16.3532 17 15.8184 17.5348 15.8184 18.1946V24.0254H20.4714V28.6784H15.8184V45.8054C15.8184 46.4652 16.3532 47 17.0129 47H26.922C35.2069 47 41.9235 40.2834 41.9235 31.9985C41.9235 23.7166 35.2069 17 26.922 17ZM25.9987 37.694H20.4714V32.1697H25.9957V37.694H25.9987Z" fill="url(#paint0_linear_418_2480)"/>
<path d="M4.83304 30.2607H0.1875V34.9062H4.83304V30.2607Z" fill="#00D9F9"/>
<path d="M13.8373 34.9237H7.34082V41.4202H13.8373V34.9237Z" fill="#0D99FF"/>
<path d="M52.9893 37.096H54.5948C55.975 37.096 57.0594 36.6735 57.8481 35.8285C58.6367 34.9835 59.0311 33.8498 59.0311 32.4274C59.0311 31.005 58.6367 29.8713 57.8481 29.0263C57.0594 28.1813 55.975 27.7588 54.5948 27.7588H52.9893V37.096ZM54.5948 25.0125C56.9608 25.0125 58.9043 25.7026 60.4253 27.0828C61.9463 28.4488 62.7068 30.2304 62.7068 32.4274C62.7068 34.6103 61.9463 36.3918 60.4253 37.772C58.9043 39.1522 56.9608 39.8423 54.5948 39.8423H49.377V25.0125H54.5948Z" fill="#111927"/>
<path d="M71.7538 36.1031C72.2749 35.5961 72.5354 34.8779 72.5354 33.9484C72.5354 33.0189 72.2749 32.3077 71.7538 31.8148C71.2327 31.3078 70.6341 31.0543 69.9581 31.0543C69.2821 31.0543 68.6836 31.3078 68.1625 31.8148C67.6414 32.3218 67.3809 33.04 67.3809 33.9695C67.3809 34.899 67.6414 35.6173 68.1625 36.1243C68.6836 36.6172 69.2821 36.8636 69.9581 36.8636C70.6341 36.8636 71.2327 36.6101 71.7538 36.1031ZM65.2684 38.3001C64.2262 37.1735 63.7051 35.7299 63.7051 33.9695C63.7051 32.2091 64.2262 30.7656 65.2684 29.6389C66.3106 28.4981 67.5781 27.9278 69.0709 27.9278C70.5778 27.9278 71.7326 28.4841 72.5354 29.5966V28.0545H76.1478V39.8423H72.5354V38.1311C71.6622 39.3705 70.4933 39.9901 69.0286 39.9901C67.564 39.9901 66.3106 39.4268 65.2684 38.3001Z" fill="#111927"/>
<path d="M83.9058 36.7791H85.1944V39.8423H83.3565C82.0327 39.8423 81.0046 39.5536 80.2723 38.9761C79.554 38.3846 79.1949 37.3777 79.1949 35.9553V31.0543H78.0964V28.0545H79.1949V25.1815H82.8073V28.0545H85.1733V31.0543H82.8073V35.9553C82.8073 36.5045 83.1734 36.7791 83.9058 36.7791Z" fill="#111927"/>
<path d="M94.4268 36.1031C94.9479 35.5961 95.2085 34.8779 95.2085 33.9484C95.2085 33.0189 94.9479 32.3077 94.4268 31.8148C93.9057 31.3078 93.3072 31.0543 92.6312 31.0543C91.9552 31.0543 91.3567 31.3078 90.8356 31.8148C90.3145 32.3218 90.054 33.04 90.054 33.9695C90.054 34.899 90.3145 35.6173 90.8356 36.1243C91.3567 36.6172 91.9552 36.8636 92.6312 36.8636C93.3072 36.8636 93.9057 36.6101 94.4268 36.1031ZM87.9415 38.3001C86.8993 37.1735 86.3782 35.7299 86.3782 33.9695C86.3782 32.2091 86.8993 30.7656 87.9415 29.6389C88.9836 28.4981 90.2511 27.9278 91.744 27.9278C93.2509 27.9278 94.4057 28.4841 95.2085 29.5966V28.0545H98.8208V39.8423H95.2085V38.1311C94.3353 39.3705 93.1664 39.9901 91.7017 39.9901C90.237 39.9901 88.9836 39.4268 87.9415 38.3001Z" fill="#111927"/>
<path d="M101.572 25.0125H105.185V37.096H109.684V39.8423H101.572V25.0125Z" fill="#111927"/>
<path d="M114.343 39.6099L109.758 28.0545H113.857L116.476 35.7651L119.349 28.0545H123.131L115.61 45.4615H111.829L114.343 39.6099Z" fill="#111927"/>
<path d="M127.981 28.0545V29.7868C128.728 28.5474 129.918 27.9278 131.552 27.9278C132.904 27.9278 133.995 28.3784 134.826 29.2798C135.671 30.1811 136.093 31.4063 136.093 32.9555V39.8423H132.502V33.4414C132.502 32.6809 132.298 32.0964 131.89 31.688C131.495 31.2655 130.946 31.0543 130.242 31.0543C129.538 31.0543 128.981 31.2655 128.573 31.688C128.179 32.0964 127.981 32.6809 127.981 33.4414V39.8423H124.369V28.0545H127.981Z" fill="#111927"/>
<path d="M142.351 28.0545V29.7868C143.097 28.5474 144.287 27.9278 145.921 27.9278C147.273 27.9278 148.364 28.3784 149.195 29.2798C150.04 30.1811 150.463 31.4063 150.463 32.9555V39.8423H146.871V33.4414C146.871 32.6809 146.667 32.0964 146.259 31.688C145.864 31.2655 145.315 31.0543 144.611 31.0543C143.907 31.0543 143.35 31.2655 142.942 31.688C142.548 32.0964 142.351 32.6809 142.351 33.4414V39.8423H138.738V28.0545H142.351Z" fill="#111927"/>
<defs>
<linearGradient id="paint0_linear_418_2480" x1="37.2593" y1="31.9876" x2="15.7969" y2="31.9876" gradientUnits="userSpaceOnUse">
<stop stop-color="#007BFF"/>
<stop offset="1" stop-color="#0D99FF"/>
</linearGradient>
</defs>
</svg>
