<?xml version="1.0" encoding="UTF-8"?>
<svg version="1.1" xmlns="http://www.w3.org/2000/svg" width="156" height="54">
<path d="M0 0 C51.48 0 102.96 0 156 0 C156 17.82 156 35.64 156 54 C104.52 54 53.04 54 0 54 C0 36.18 0 18.36 0 0 Z " fill="#FEFDFC" transform="translate(0,0)"/>
<path d="M0 0 C4.32328804 -0.0744013 8.64623255 -0.12871968 12.9699707 -0.16479492 C14.43943782 -0.17984066 15.90886034 -0.20028238 17.37817383 -0.22631836 C19.4957177 -0.26288955 21.61266565 -0.27976801 23.73046875 -0.29296875 C25.63928833 -0.31653442 25.63928833 -0.31653442 27.58666992 -0.34057617 C31.24908592 0.02485336 33.14150499 0.70890146 36 3 C36.48828125 5.91796875 36.48828125 5.91796875 36.3125 9.1875 C36.26738281 10.27417969 36.22226563 11.36085938 36.17578125 12.48046875 C36.08876953 13.72763672 36.08876953 13.72763672 36 15 C32.7 15 29.4 15 26 15 C26 14.34 26 13.68 26 13 C27.98 13 29.96 13 32 13 C32 12.34 32 11.68 32 11 C30.5459375 11.0309375 30.5459375 11.0309375 29.0625 11.0625 C26 11 26 11 25 10 C23.14712498 9.92773498 21.29166122 9.9161878 19.4375 9.9375 C18.42558594 9.94652344 17.41367188 9.95554687 16.37109375 9.96484375 C15.58863281 9.97644531 14.80617188 9.98804688 14 10 C14 9.01 14 8.02 14 7 C17.3 7 20.6 7 24 7 C24 6.34 24 5.68 24 5 C20.04 5 16.08 5 12 5 C12 7.64 12 10.28 12 13 C12.67546875 12.95359375 13.3509375 12.9071875 14.046875 12.859375 C21.49486977 12.55801105 21.49486977 12.55801105 24 14.75 C24.66 15.4925 25.32 16.235 26 17 C29.2595446 18.53634586 32.60961979 19.78360405 36 21 C36 21.99 36 22.98 36 24 C37.98 24 39.96 24 42 24 C42 17.73 42 11.46 42 5 C40.68 5 39.36 5 38 5 C38.33 3.35 38.66 1.7 39 0 C45.27 0 51.54 0 58 0 C59.20272819 2.40545638 59.10071472 3.94996953 59.0625 6.625 C59.05347656 7.44226563 59.04445312 8.25953125 59.03515625 9.1015625 C59.02355469 9.72804688 59.01195312 10.35453125 59 11 C57.68 11.33 56.36 11.66 55 12 C55 15.96 55 19.92 55 24 C56.32 24.33 57.64 24.66 59 25 C59.125 32.75 59.125 32.75 58 35 C55.06195004 35.08086376 52.12611925 35.1404283 49.1875 35.1875 C48.35412109 35.21263672 47.52074219 35.23777344 46.66210938 35.26367188 C45.85966797 35.27333984 45.05722656 35.28300781 44.23046875 35.29296875 C43.49207764 35.3086792 42.75368652 35.32438965 41.99291992 35.34057617 C39.47769478 34.91074167 38.60558484 33.92536938 37 32 C36.67 32.33 36.34 32.66 36 33 C33.50245859 33.11327366 31.0336001 33.16417191 28.53515625 33.16796875 C27.4123954 33.17296135 27.4123954 33.17296135 26.26695251 33.17805481 C24.68066016 33.18312693 23.0943571 33.18546305 21.50805664 33.18530273 C19.07615631 33.18748773 16.64471051 33.20563581 14.21289062 33.22460938 C12.67448072 33.22754349 11.13606866 33.22952817 9.59765625 33.23046875 C8.86740738 33.23765427 8.13715851 33.24483978 7.38478088 33.25224304 C2.22882307 33.22882307 2.22882307 33.22882307 0 31 C-0.26991906 28.31160615 -0.08737357 25.70858064 0 23 C1.65 23 3.3 23 5 23 C5 18.38 5 13.76 5 9 C4.01 9 3.02 9 2 9 C0.12379578 5.83390538 -0.09662822 3.64167599 0 0 Z " fill="#F3BC65" transform="translate(84,10)"/>
<path d="M0 0 C0.75796875 0.00515625 1.5159375 0.0103125 2.296875 0.015625 C4.375 0.125 4.375 0.125 8 1 C10.375 3.9375 10.375 3.9375 12 7 C12.66 7.66 13.32 8.32 14 9 C14.3359375 12.265625 14.3359375 12.265625 14.375 16.25 C14.40335938 17.55453125 14.43171875 18.8590625 14.4609375 20.203125 C13.93236425 24.55713516 12.76983091 26.64232728 10 30 C5 33 5 33 2 33 C2 33.66 2 34.32 2 35 C-4.60635276 35.5392941 -8.59947329 34.96773391 -14 31 C-15.3125 28.8125 -15.3125 28.8125 -16 27 C-16.66 26.67 -17.32 26.34 -18 26 C-18 25.34 -18 24.68 -18 24 C-18.66 24 -19.32 24 -20 24 C-21.22369827 8.73776329 -21.22369827 8.73776329 -18.2890625 4.5703125 C-16.23876386 3.08255067 -14.33339693 1.97459149 -12 1 C-8.32807821 -0.83596089 -4.03006029 -0.11783802 0 0 Z " fill="#F5C77E" transform="translate(68,9)"/>
<path d="M0 0 C0.680625 -0.01417969 1.36125 -0.02835938 2.0625 -0.04296875 C4 0.1875 4 0.1875 7 2.1875 C9.7904246 2.32382609 12.51847412 2.1839746 15.30859375 2.0625 C18.10232269 2.19225229 19.63231509 2.75457485 22 4.1875 C22.05410687 5.95799689 22.09284119 7.72896849 22.125 9.5 C22.14820313 10.48613281 22.17140625 11.47226562 22.1953125 12.48828125 C22 15.1875 22 15.1875 20 18.1875 C20.66 18.1875 21.32 18.1875 22 18.1875 C22 20.8275 22 23.4675 22 26.1875 C21.34 26.1875 20.68 26.1875 20 26.1875 C20 27.5075 20 28.8275 20 30.1875 C19.34 30.1875 18.68 30.1875 18 30.1875 C17.67 31.1775 17.34 32.1675 17 33.1875 C12.47258828 34.69663724 7.93573202 34.96179281 3.5 33.1875 C2.7575 32.6925 2.7575 32.6925 2 32.1875 C2 32.8475 2 33.5075 2 34.1875 C-0.97 34.1875 -3.94 34.1875 -7 34.1875 C-10.35532324 28.87490486 -10.52236348 24.27504364 -10 18.1875 C-9.80921875 17.46820312 -9.6184375 16.74890625 -9.421875 16.0078125 C-8.77658422 14.10299325 -8.77658422 14.10299325 -10 12.1875 C-10.45723173 6.0148717 -10.45723173 6.0148717 -8.6875 2.8125 C-6.06052734 0.28282262 -3.49505209 0.03309708 0 0 Z " fill="#F5C986" transform="translate(24,8.8125)"/>
<path d="M0 0 C4.34161825 -0.04952706 8.68308575 -0.08577954 13.02490234 -0.10986328 C14.50116847 -0.11990591 15.97741479 -0.13354265 17.45361328 -0.15087891 C19.57850034 -0.17520421 21.70312385 -0.1865004 23.828125 -0.1953125 C25.1059082 -0.20578613 26.38369141 -0.21625977 27.70019531 -0.22705078 C31 0 31 0 35 2 C35 5.96 35 9.92 35 14 C31.7 14 28.4 14 25 14 C25 13.34 25 12.68 25 12 C26.98 12 28.96 12 31 12 C31 11.34 31 10.68 31 10 C29.5459375 10.0309375 29.5459375 10.0309375 28.0625 10.0625 C25 10 25 10 24 9 C22.14712498 8.92773498 20.29166122 8.9161878 18.4375 8.9375 C17.42558594 8.94652344 16.41367188 8.95554687 15.37109375 8.96484375 C14.58863281 8.97644531 13.80617188 8.98804688 13 9 C13 8.01 13 7.02 13 6 C16.3 6 19.6 6 23 6 C23 5.34 23 4.68 23 4 C19.04 4 15.08 4 11 4 C11 6.64 11 9.28 11 12 C12.98 12 14.96 12 17 12 C17 12.66 17 13.32 17 14 C15.02 14 13.04 14 11 14 C11 16.64 11 19.28 11 22 C15.62 22 20.24 22 25 22 C25 21.01 25 20.02 25 19 C26.32 19 27.64 19 29 19 C29 21.31 29 23.62 29 26 C19.76 26 10.52 26 1 26 C1 25.34 1 24.68 1 24 C2.32 24 3.64 24 5 24 C5 17.07 5 10.14 5 3 C3.35 3 1.7 3 0 3 C0 2.01 0 1.02 0 0 Z " fill="#F0A037" transform="translate(85,11)"/>
<path d="M0 0 C0.96679688 0.04511719 1.93359375 0.09023437 2.9296875 0.13671875 C3.65414062 0.19472656 4.37859375 0.25273437 5.125 0.3125 C2.79285852 1.51878008 0.62857861 2.4779738 -1.875 3.3125 C-1.875 4.3025 -1.875 5.2925 -1.875 6.3125 C-2.535 6.3125 -3.195 6.3125 -3.875 6.3125 C-3.73399143 8.58363803 -3.58703245 10.85440725 -3.4375 13.125 C-3.35628906 14.38957031 -3.27507813 15.65414063 -3.19140625 16.95703125 C-3.00315453 20.30431893 -3.00315453 20.30431893 -1.875 23.3125 C0.765 23.6425 3.405 23.9725 6.125 24.3125 C6.125 23.6525 6.125 22.9925 6.125 22.3125 C6.785 22.3125 7.445 22.3125 8.125 22.3125 C8.125 21.6525 8.125 20.9925 8.125 20.3125 C8.785 20.3125 9.445 20.3125 10.125 20.3125 C10.2064222 18.08394426 10.26438079 15.85452345 10.3125 13.625 C10.34730469 12.38363281 10.38210937 11.14226563 10.41796875 9.86328125 C10.1096829 6.12685679 9.30588273 4.30620517 7.125 1.3125 C8.58445288 1.39958669 10.04265868 1.50776907 11.5 1.625 C12.71816406 1.71201172 12.71816406 1.71201172 13.9609375 1.80078125 C16.125 2.3125 16.125 2.3125 18.125 5.3125 C18.86695637 10.96581359 19.4327671 17.28987878 17.12109375 22.6328125 C14.16798462 25.82494613 11.56315791 26.26584018 7.2734375 26.72265625 C1.26869767 26.93918661 -4.344035 26.98113681 -9.875 24.3125 C-9.875 23.6525 -9.875 22.9925 -9.875 22.3125 C-10.535 22.3125 -11.195 22.3125 -11.875 22.3125 C-12.03762928 19.58093041 -12.15610686 16.85907878 -12.25 14.125 C-12.30027344 13.35607422 -12.35054687 12.58714844 -12.40234375 11.79492188 C-12.54457516 6.27160206 -12.54457516 6.27160206 -10.71923828 3.65698242 C-7.30805713 0.52941883 -4.51846458 -0.27551613 0 0 Z " fill="#F0A33D" transform="translate(59.875,10.6875)"/>
<path d="M0 0 C1.6662553 0.0370279 3.33401319 0.04759962 5 0 C5 2.31 5 4.62 5 7 C-0.28978183 7.49207273 -1.9986113 6.28319073 -6 3 C-8.7104607 2.66407492 -8.7104607 2.66407492 -11 3 C-11.33 4.65 -11.66 6.3 -12 8 C-7.02638346 9.75734451 -2.2584002 11.32584613 3 12 C3 12.66 3 13.32 3 14 C3.66 14 4.32 14 5 14 C6.125 20.625 6.125 20.625 5 24 C4.34 24 3.68 24 3 24 C3 24.66 3 25.32 3 26 C-4.33333333 26 -11.66666667 26 -19 26 C-19 23.36 -19 20.72 -19 18 C-16.125 17.8125 -16.125 17.8125 -13 18 C-12.34 18.99 -11.68 19.98 -11 21 C-9.03638136 21.57748803 -9.03638136 21.57748803 -6.875 21.6875 C-5.59625 21.790625 -4.3175 21.89375 -3 22 C-2.67 20.68 -2.34 19.36 -2 18 C-2.556875 17.82984375 -3.11375 17.6596875 -3.6875 17.484375 C-9.09590609 15.76684063 -13.98062896 13.64657745 -19 11 C-19.30192308 3.15 -19.30192308 3.15 -17 0 C-11.43184966 -1.85605011 -5.66652225 -1.25922717 0 0 Z " fill="#F0A23C" transform="translate(35,11)"/>
<path d="M0 0 C6.27 0 12.54 0 19 0 C20.20272819 2.40545638 20.10071472 3.94996953 20.0625 6.625 C20.05347656 7.44226563 20.04445312 8.25953125 20.03515625 9.1015625 C20.02355469 9.72804688 20.01195312 10.35453125 20 11 C18.68 11.33 17.36 11.66 16 12 C16 15.96 16 19.92 16 24 C17.32 24.33 18.64 24.66 20 25 C20.125 32.75 20.125 32.75 19 35 C16.06195004 35.08086376 13.12611925 35.1404283 10.1875 35.1875 C9.35412109 35.21263672 8.52074219 35.23777344 7.66210938 35.26367188 C6.45844727 35.27817383 6.45844727 35.27817383 5.23046875 35.29296875 C4.12288208 35.31653442 4.12288208 35.31653442 2.99291992 35.34057617 C0.47223328 34.90980833 -0.34745822 33.88626595 -2 32 C-2.33 32 -2.66 32 -3 32 C-3 30.35 -3 28.7 -3 27 C2.61 27 8.22 27 14 27 C14.33 26.34 14.66 25.68 15 25 C14.360625 24.855625 13.72125 24.71125 13.0625 24.5625 C11 24 11 24 10 23 C9.91368126 21.65732587 9.89293527 20.31025678 9.90234375 18.96484375 C9.90556641 18.15595703 9.90878906 17.34707031 9.91210938 16.51367188 C9.92048828 15.66353516 9.92886719 14.81339844 9.9375 13.9375 C9.94201172 13.08349609 9.94652344 12.22949219 9.95117188 11.34960938 C9.96299627 9.23304337 9.98093231 7.11651315 10 5 C11.65 5 13.3 5 15 5 C15 3.68 15 2.36 15 1 C10.05 1 5.1 1 0 1 C0 0.67 0 0.34 0 0 Z " fill="#F8DAA8" transform="translate(123,10)"/>
<path d="M0 0 C1.98 0 3.96 0 6 0 C6 1.32 6 2.64 6 4 C7.32 4 8.64 4 10 4 C10 10.27 10 16.54 10 23 C8.02 23 6.04 23 4 23 C3.67 22.01 3.34 21.02 3 20 C0.23894328 18.83441747 -2.56510361 18.02406919 -5.43359375 17.16015625 C-8 16 -8 16 -10 12 C-13.3 12 -16.6 12 -20 12 C-20 9.36 -20 6.72 -20 4 C-16.04 4 -12.08 4 -8 4 C-8 4.66 -8 5.32 -8 6 C-11.3 6 -14.6 6 -18 6 C-18 6.99 -18 7.98 -18 9 C-17.01 8.67 -16.02 8.34 -15 8 C-9.46190705 7.72309535 -5.24880553 8.25039816 0 10 C0 10.66 0 11.32 0 12 C-1.98 12 -3.96 12 -6 12 C-6 12.66 -6 13.32 -6 14 C-2.7 14 0.6 14 4 14 C4 10.04 4 6.08 4 2 C2.68 1.67 1.36 1.34 0 1 C0 0.67 0 0.34 0 0 Z " fill="#F7D5A1" transform="translate(116,11)"/>
<path d="M0 0 C5.25624179 -0.52562418 5.25624179 -0.52562418 8 0 C10.375 2.875 10.375 2.875 12 6 C12.66 6.66 13.32 7.32 14 8 C14.3359375 11.265625 14.3359375 11.265625 14.375 15.25 C14.40335938 16.55453125 14.43171875 17.8590625 14.4609375 19.203125 C13.93236425 23.55713516 12.76983091 25.64232728 10 29 C5 32 5 32 2 32 C2 32.66 2 33.32 2 34 C-4.58323547 34.53740698 -8.65682882 34.03463947 -14 30 C-15.4375 27.25 -15.4375 27.25 -16 25 C-15.01 25.33 -14.02 25.66 -13 26 C-10.37776226 26.20017082 -7.81220042 26.32264877 -5.1875 26.375 C-4.48818359 26.41238281 -3.78886719 26.44976562 -3.06835938 26.48828125 C0.71781957 26.55203356 3.35465262 26.1815651 6.484375 23.953125 C9.69550897 20.18353295 9.663959 18.2607324 9.4375 13.375 C9.39496094 12.06273437 9.35242188 10.75046875 9.30859375 9.3984375 C9.13218817 6.01466416 9.13218817 6.01466416 8 3 C6.14255793 2.38932856 6.14255793 2.38932856 4 2 C2.6520257 1.36345658 1.31403276 0.70394612 0 0 Z " fill="#F5CB86" transform="translate(68,10)"/>
<path d="M0 0 C10.23 0 20.46 0 31 0 C31 0.33 31 0.66 31 1 C21.1 1 11.2 1 1 1 C1 1.99 1 2.98 1 4 C2.65 4 4.3 4 6 4 C6 10.93 6 17.86 6 25 C4.68 25 3.36 25 2 25 C2 25.66 2 26.32 2 27 C11.9 27 21.8 27 32 27 C32 28.32 32 29.64 32 31 C22.76 31 13.52 31 4 31 C4 31.66 4 32.32 4 33 C2.68 32.34 1.36 31.68 0 31 C0 28.36 0 25.72 0 23 C1.65 23 3.3 23 5 23 C5 18.38 5 13.76 5 9 C4.01 9 3.02 9 2 9 C-0.05164237 5.53785351 0 4.40610765 0 0 Z " fill="#F5C981" transform="translate(84,10)"/>
<path d="M0 0 C5.28 0 10.56 0 16 0 C16 1.32 16 2.64 16 4 C14.35 4 12.7 4 11 4 C11.33 9.94 11.66 15.88 12 22 C13.32 22.66 14.64 23.32 16 24 C16 24.66 16 25.32 16 26 C11.05 26 6.1 26 1 26 C1 25.34 1 24.68 1 24 C2.32 24 3.64 24 5 24 C5 17.4 5 10.8 5 4 C3.35 4 1.7 4 0 4 C0 2.68 0 1.36 0 0 Z " fill="#F0A542" transform="translate(122,11)"/>
<path d="M0 0 C4.34161825 -0.04952706 8.68308575 -0.08577954 13.02490234 -0.10986328 C14.50116847 -0.11990591 15.97741479 -0.13354265 17.45361328 -0.15087891 C19.57850034 -0.17520421 21.70312385 -0.1865004 23.828125 -0.1953125 C25.1059082 -0.20578613 26.38369141 -0.21625977 27.70019531 -0.22705078 C31 0 31 0 35 2 C35 5.96 35 9.92 35 14 C31.7 14 28.4 14 25 14 C25 13.34 25 12.68 25 12 C26.98 12 28.96 12 31 12 C31 11.34 31 10.68 31 10 C29.5459375 10.0309375 29.5459375 10.0309375 28.0625 10.0625 C25 10 25 10 24 9 C22.14712498 8.92773498 20.29166122 8.9161878 18.4375 8.9375 C17.42558594 8.94652344 16.41367188 8.95554687 15.37109375 8.96484375 C14.58863281 8.97644531 13.80617188 8.98804688 13 9 C13 8.01 13 7.02 13 6 C16.3 6 19.6 6 23 6 C23 5.34 23 4.68 23 4 C19.04 4 15.08 4 11 4 C11 3.67 11 3.34 11 3 C15.62 3 20.24 3 25 3 C25 4.65 25 6.3 25 8 C25.99 8 26.98 8 28 8 C28 5.69 28 3.38 28 1 C19.09 1 10.18 1 1 1 C0.67 1.66 0.34 2.32 0 3 C0 2.01 0 1.02 0 0 Z " fill="#F2B258" transform="translate(85,11)"/>
<path d="M0 0 C0.33 0 0.66 0 1 0 C1.66 2.97 2.32 5.94 3 9 C3.99 9 4.98 9 6 9 C6 13.62 6 18.24 6 23 C4.35 23 2.7 23 1 23 C0.67 24.32 0.34 25.64 0 27 C0 26.34 0 25.68 0 25 C-0.66 25 -1.32 25 -2 25 C-2.04125 25.5775 -2.0825 26.155 -2.125 26.75 C-3.47957626 30.23319609 -5.77732812 31.29387959 -9 33 C-11.19921875 32.60546875 -11.19921875 32.60546875 -13 32 C-12.45730469 31.76925781 -11.91460937 31.53851563 -11.35546875 31.30078125 C-10.28232422 30.81158203 -10.28232422 30.81158203 -9.1875 30.3125 C-8.47980469 29.99925781 -7.77210937 29.68601562 -7.04296875 29.36328125 C-4.31882078 27.54544637 -3.340807 25.991986 -2 23 C-1.48902547 19.36319727 -1.48902547 19.36319727 -1.5625 15.5 C-1.54316406 14.2109375 -1.52382812 12.921875 -1.50390625 11.59375 C-2.06405759 7.53596079 -3.18425205 5.89938402 -6 3 C-4 4 -2 5 0 6 C0 4.02 0 2.04 0 0 Z " fill="#FAE7CA" transform="translate(83,10)"/>
<path d="M0 0 C1.8871875 0.0309375 1.8871875 0.0309375 3.8125 0.0625 C3.8125 0.3925 3.8125 0.7225 3.8125 1.0625 C0.5125 1.7225 -2.7875 2.3825 -6.1875 3.0625 C-6.8475 6.3625 -7.5075 9.6625 -8.1875 13.0625 C-7.3625 13.330625 -6.5375 13.59875 -5.6875 13.875 C-3.11434224 14.74803567 -0.55279503 15.63292399 2 16.5625 C2.65355469 16.7996875 3.30710937 17.036875 3.98046875 17.28125 C5.8125 18.0625 5.8125 18.0625 8.8125 20.0625 C8.4825 21.7125 8.1525 23.3625 7.8125 25.0625 C2.32987318 24.70878214 2.32987318 24.70878214 -0.1875 24.0625 C-0.88687532 22.74602881 -1.55479133 21.41227849 -2.1875 20.0625 C-5.74956661 19.24379815 -5.74956661 19.24379815 -9.1875 19.0625 C-9.1875 22.0325 -9.1875 25.0025 -9.1875 28.0625 C-9.5175 28.0625 -9.8475 28.0625 -10.1875 28.0625 C-10.214693 26.47926312 -10.23398306 24.89588938 -10.25 23.3125 C-10.26160156 22.43078125 -10.27320313 21.5490625 -10.28515625 20.640625 C-10.1875 18.0625 -10.1875 18.0625 -9.62109375 15.859375 C-8.96230505 13.97577065 -8.96230505 13.97577065 -10.1875 12.0625 C-10.64473173 5.8898717 -10.64473173 5.8898717 -8.875 2.6875 C-6.15673179 0.06990839 -3.59620528 -0.05895418 0 0 Z " fill="#F6D195" transform="translate(24.1875,8.9375)"/>
<path d="M0 0 C6.27 0 12.54 0 19 0 C19 3.3 19 6.6 19 10 C17.68 10.33 16.36 10.66 15 11 C15 11.68707031 15 12.37414063 15 13.08203125 C15 16.72135417 15 20.36067708 15 24 C14.01 24.33 13.02 24.66 12 25 C10 23 10 23 9.77294922 21.12060547 C9.78865967 20.00516357 9.78865967 20.00516357 9.8046875 18.8671875 C9.81435547 17.65869141 9.81435547 17.65869141 9.82421875 16.42578125 C9.84097656 15.58402344 9.85773438 14.74226563 9.875 13.875 C9.88402344 13.02550781 9.89304688 12.17601562 9.90234375 11.30078125 C9.92594353 9.20040116 9.96181517 7.10016556 10 5 C11.65 5 13.3 5 15 5 C15 3.68 15 2.36 15 1 C10.05 1 5.1 1 0 1 C0 0.67 0 0.34 0 0 Z " fill="#F6CC8F" transform="translate(123,10)"/>
<path d="M0 0 C4 0 4 0 6.25 2 C6.8275 2.66 7.405 3.32 8 4 C7.34 6.31 6.68 8.62 6 11 C4.37509046 11.02698189 2.75005367 11.04638757 1.125 11.0625 C-0.23238281 11.07990234 -0.23238281 11.07990234 -1.6171875 11.09765625 C-4 11 -4 11 -6 10 C-6 7.36 -6 4.72 -6 2 C-4.02 2 -2.04 2 0 2 C0 1.34 0 0.68 0 0 Z " fill="#F5CA86" transform="translate(102,23)"/>
<path d="M0 0 C0.33 0 0.66 0 1 0 C1 2.64 1 5.28 1 8 C2.98 8 4.96 8 7 8 C7 8.66 7 9.32 7 10 C5.02 10 3.04 10 1 10 C1 12.64 1 15.28 1 18 C5.62 18 10.24 18 15 18 C15 17.01 15 16.02 15 15 C16.32 15 17.64 15 19 15 C19 17.31 19 19.62 19 22 C9.76 22 0.52 22 -9 22 C-9 21.34 -9 20.68 -9 20 C-6.03 20 -3.06 20 0 20 C0 13.4 0 6.8 0 0 Z " fill="#F1A84D" transform="translate(95,15)"/>
<path d="M0 0 C3.5 0.125 3.5 0.125 4.5 1.125 C4.57205511 2.81108966 4.58386068 4.50000659 4.5625 6.1875 C4.55347656 7.10660156 4.54445313 8.02570312 4.53515625 8.97265625 C4.52355469 9.68292969 4.51195313 10.39320312 4.5 11.125 C0.045 11.62 0.045 11.62 -4.5 12.125 C-4.52687279 10.31257948 -4.54633715 8.50004767 -4.5625 6.6875 C-4.57410156 5.67816406 -4.58570313 4.66882813 -4.59765625 3.62890625 C-4.44506773 -0.28346347 -4.05187323 0.14470976 0 0 Z " fill="#FDF8EE" transform="translate(65.5,19.875)"/>
<path d="M0 0 C3.61142999 0.41038977 5.17798919 1.81397521 7.75 4.3125 C7.75 4.9725 7.75 5.6325 7.75 6.3125 C10.39 6.3125 13.03 6.3125 15.75 6.3125 C15.75 6.9725 15.75 7.6325 15.75 8.3125 C9.66496995 9.32667168 3.83050141 9.61223543 -2.25 8.3125 C-2.91 7.6525 -3.57 6.9925 -4.25 6.3125 C-3.54014473 0.49168677 -3.54014473 0.49168677 0 0 Z " fill="#F6CD8C" transform="translate(26.25,12.6875)"/>
<path d="M0 0 C4.48404564 -0.024759 8.96805481 -0.04288799 13.45214844 -0.05493164 C14.97689507 -0.05995365 16.50163691 -0.0667725 18.02636719 -0.07543945 C20.22071519 -0.08759849 22.4149994 -0.09324968 24.609375 -0.09765625 C26.5888916 -0.10551147 26.5888916 -0.10551147 28.60839844 -0.11352539 C31.35432301 -0.02161242 33.39717042 0.28042724 36 1 C37.44098431 1.07766084 38.88508629 1.10796367 40.328125 1.09765625 C41.12734375 1.09443359 41.9265625 1.09121094 42.75 1.08789062 C43.575 1.07951172 44.4 1.07113281 45.25 1.0625 C46.09046875 1.05798828 46.9309375 1.05347656 47.796875 1.04882812 C49.86461401 1.03707961 51.93231624 1.01914522 54 1 C54 1.33 54 1.66 54 2 C52.46279297 2.09087891 52.46279297 2.09087891 50.89453125 2.18359375 C49.53384305 2.26805026 48.17316657 2.35269567 46.8125 2.4375 C46.13896484 2.47681641 45.46542969 2.51613281 44.77148438 2.55664062 C41.85597332 2.74152669 39.05918658 2.98737023 36.19921875 3.59765625 C34 4 34 4 31 3 C28.6444552 2.84820986 26.28524877 2.75100711 23.92578125 2.68359375 C23.2419487 2.66281265 22.55811615 2.64203156 21.8535614 2.62062073 C19.6733079 2.55533846 17.49293595 2.49633983 15.3125 2.4375 C13.83267014 2.39429447 12.35285217 2.35067953 10.87304688 2.30664062 C7.24882378 2.19967917 3.62446811 2.09835177 0 2 C0 1.34 0 0.68 0 0 Z " fill="#FCF1DC" transform="translate(84,8)"/>
<path d="M0 0 C1.6662553 0.0370279 3.33401319 0.04759962 5 0 C5 2.31 5 4.62 5 7 C2.3125 7.25 2.3125 7.25 -1 7 C-1.7425 6.360625 -2.485 5.72125 -3.25 5.0625 C-6.78341277 2.41244042 -9.47231087 2.40250243 -13.79296875 2.17578125 C-16 2 -16 2 -18 1 C-12.31840564 -2.25950878 -6.20089329 -1.37797629 0 0 Z " fill="#F1AD50" transform="translate(35,11)"/>
<path d="M0 0 C0.66 0.33 1.32 0.66 2 1 C2.61619487 12.5365372 2.61619487 12.5365372 0.5 17.5625 C-3.90466119 21.85704466 -8.2682849 24.22790172 -14.5 24.25 C-16.2325 24.12625 -16.2325 24.12625 -18 24 C-18.33 23.34 -18.66 22.68 -19 22 C-16.69 22 -14.38 22 -12 22 C-12 21.34 -12 20.68 -12 20 C-11.0925 19.7525 -10.185 19.505 -9.25 19.25 C-5.26019366 17.7154591 -2.91936202 15.83872404 -1 12 C-0.77141886 9.9625237 -0.58975722 7.91959697 -0.4375 5.875 C-0.35371094 4.77929688 -0.26992187 3.68359375 -0.18359375 2.5546875 C-0.09271484 1.29011719 -0.09271484 1.29011719 0 0 Z " fill="#F2AF54" transform="translate(80,19)"/>
<path d="M0 0 C3.96 0 7.92 0 12 0 C12 0.66 12 1.32 12 2 C8.7 2 5.4 2 2 2 C2 2.99 2 3.98 2 5 C2.99 4.67 3.98 4.34 5 4 C10.53809295 3.72309535 14.75119447 4.25039816 20 6 C20 6.66 20 7.32 20 8 C18.02 8 16.04 8 14 8 C13.67 8.66 13.34 9.32 13 10 C13 8.68 13 7.36 13 6 C10.36 6.33 7.72 6.66 5 7 C5 7.33 5 7.66 5 8 C3.35 8 1.7 8 0 8 C0 5.36 0 2.72 0 0 Z " fill="#F7D29B" transform="translate(96,15)"/>
<path d="M0 0 C0.33 0 0.66 0 1 0 C1 3.63 1 7.26 1 11 C-9.23 11 -19.46 11 -30 11 C-30 10.34 -30 9.68 -30 9 C-20.76 9 -11.52 9 -2 9 C-2 8.34 -2 7.68 -2 7 C-1.34 7 -0.68 7 0 7 C0 4.69 0 2.38 0 0 Z " fill="#F1AA52" transform="translate(118,32)"/>
<path d="M0 0 C1.98 0.66 3.96 1.32 6 2 C6 5.96 6 9.92 6 14 C2.7 14 -0.6 14 -4 14 C-4 13.34 -4 12.68 -4 12 C-2.02 12 -0.04 12 2 12 C2 11.34 2 10.68 2 10 C1.34 10 0.68 10 0 10 C0 6.7 0 3.4 0 0 Z " fill="#F4C171" transform="translate(114,11)"/>
<path d="M0 0 C1.98 0 3.96 0 6 0 C6 1.32 6 2.64 6 4 C7.32 4 8.64 4 10 4 C10 10.27 10 16.54 10 23 C8.02 23 6.04 23 4 23 C4 22.34 4 21.68 4 21 C5.65 21 7.3 21 9 21 C9 17.04 9 13.08 9 9 C8.01 9 7.02 9 6 9 C5.67 10.65 5.34 12.3 5 14 C4.67 14 4.34 14 4 14 C4 10.04 4 6.08 4 2 C2.68 1.67 1.36 1.34 0 1 C0 0.67 0 0.34 0 0 Z " fill="#F9E0B5" transform="translate(116,11)"/>
<path d="M0 0 C10.23 0 20.46 0 31 0 C31 0.33 31 0.66 31 1 C21.1 1 11.2 1 1 1 C1 1.99 1 2.98 1 4 C2.65 4 4.3 4 6 4 C6 10.27 6 16.54 6 23 C5.67 23 5.34 23 5 23 C5 18.38 5 13.76 5 9 C4.01 9 3.02 9 2 9 C-0.05164237 5.53785351 0 4.40610765 0 0 Z " fill="#F6D192" transform="translate(84,10)"/>
<path d="M0 0 C0.66 0.33 1.32 0.66 2 1 C1.19175781 1.47953125 0.38351563 1.9590625 -0.44921875 2.453125 C-4.03117583 6.02959669 -3.77607653 8.86925436 -3.8125 13.75 C-3.83763672 14.54277344 -3.86277344 15.33554687 -3.88867188 16.15234375 C-3.9473673 18.10103195 -3.9765898 20.05056859 -4 22 C-3.34 22 -2.68 22 -2 22 C-3.39244639 24.78489278 -5.55991988 26.12301529 -8 28 C-8 26.68 -8 25.36 -8 24 C-7.34 24 -6.68 24 -6 24 C-6 21.36 -6 18.72 -6 16 C-6.66 16 -7.32 16 -8 16 C-7.67 15.01 -7.34 14.02 -7 13 C-6.77820215 11.10787263 -6.59385985 9.21115528 -6.4375 7.3125 C-6.35371094 6.31863281 -6.26992188 5.32476562 -6.18359375 4.30078125 C-6.12300781 3.54152344 -6.06242187 2.78226563 -6 2 C-5.01 2 -4.02 2 -3 2 C-2.01 1.34 -1.02 0.68 0 0 Z " fill="#F9E2B6" transform="translate(52,11)"/>
<path d="M0 0 C0.66 0 1.32 0 2 0 C2 2.31 2 4.62 2 7 C0.35 7.33 -1.3 7.66 -3 8 C-3 10.97 -3 13.94 -3 17 C-3.99 17 -4.98 17 -6 17 C-6 13.04 -6 9.08 -6 5 C-4.02 4.67 -2.04 4.34 0 4 C0 2.68 0 1.36 0 0 Z " fill="#F3BF65" transform="translate(140,13)"/>
<path d="M0 0 C0.66 0 1.32 0 2 0 C2 2.31 2 4.62 2 7 C-3.94 7 -9.88 7 -16 7 C-16 6.01 -16 5.02 -16 4 C-11.05 3.67 -6.1 3.34 -1 3 C-0.67 2.01 -0.34 1.02 0 0 Z " fill="#F2B15A" transform="translate(140,36)"/>
<path d="M0 0 C0.66 0.33 1.32 0.66 2 1 C2 1.99 2 2.98 2 4 C2.66 4 3.32 4 4 4 C4.33 3.34 4.66 2.68 5 2 C4.67 5.3 4.34 8.6 4 12 C-0.62197306 14.21854707 -3.76824163 15.38281159 -9 15 C-9 14.34 -9 13.68 -9 13 C-8.37351562 12.82984375 -7.74703125 12.6596875 -7.1015625 12.484375 C-6.28429688 12.24203125 -5.46703125 11.9996875 -4.625 11.75 C-3.81289063 11.51796875 -3.00078125 11.2859375 -2.1640625 11.046875 C0.45785454 9.7785108 0.99382318 8.67576692 2 6 C1.34 5.67 0.68 5.34 0 5 C0 3.35 0 1.7 0 0 Z " fill="#F2B55D" transform="translate(40,27)"/>
<path d="M0 0 C1.32 0.66 2.64 1.32 4 2 C3.34 4.31 2.68 6.62 2 9 C0.37509046 9.02698189 -1.24994633 9.04638757 -2.875 9.0625 C-4.23238281 9.07990234 -4.23238281 9.07990234 -5.6171875 9.09765625 C-8 9 -8 9 -10 8 C-10 6.02 -10 4.04 -10 2 C-9.34 3.32 -8.68 4.64 -8 6 C-5.36 6 -2.72 6 0 6 C0 4.02 0 2.04 0 0 Z " fill="#F8D9AB" transform="translate(106,25)"/>
<path d="M0 0 C3.875 0.875 3.875 0.875 5 2 C5.07244053 4.01964199 5.08377188 6.04167124 5.0625 8.0625 C5.05347656 9.16722656 5.04445313 10.27195312 5.03515625 11.41015625 C5.02355469 12.26480469 5.01195313 13.11945312 5 14 C4.67 14 4.34 14 4 14 C3.67 11.36 3.34 8.72 3 6 C0.69 6 -1.62 6 -4 6 C-4.33 9.63 -4.66 13.26 -5 17 C-1.535 16.505 -1.535 16.505 2 16 C2 16.66 2 17.32 2 18 C-0.97 18 -3.94 18 -7 18 C-6.85970581 15.8537974 -6.71261836 13.70803782 -6.5625 11.5625 C-6.48128906 10.36753906 -6.40007813 9.17257813 -6.31640625 7.94140625 C-6 5 -6 5 -5 4 C-3.00041636 3.95919217 -0.99954746 3.95745644 1 4 C0.67 2.68 0.34 1.36 0 0 Z " fill="#F7D49E" transform="translate(66,15)"/>
<path d="M0 0 C2.475 0.99 2.475 0.99 5 2 C5 5.3 5 8.6 5 12 C3.68 12.33 2.36 12.66 1 13 C1 10 1 10 2 8 C-0.64 8 -3.28 8 -6 8 C-6 7.67 -6 7.34 -6 7 C-4.02 7 -2.04 7 0 7 C0 4.69 0 2.38 0 0 Z " fill="#F3BC6D" transform="translate(40,11)"/>
<path d="M0 0 C1.32 0.33 2.64 0.66 4 1 C4 4.96 4 8.92 4 13 C2.35 13 0.7 13 -1 13 C-2.51403812 8.15507803 -1.36602172 4.7408989 0 0 Z " fill="#FEFCF8" transform="translate(121,19)"/>
<path d="M0 0 C1.65 0 3.3 0 5 0 C3.68 0.33 2.36 0.66 1 1 C1 3.64 1 6.28 1 9 C2.98 9.495 2.98 9.495 5 10 C4.67 10.66 4.34 11.32 4 12 C5.98 12 7.96 12 10 12 C10 12.99 10 13.98 10 15 C7.36 15 4.72 15 2 15 C-0.02558881 11.65060119 -0.21738987 9.13037449 -0.125 5.25 C-0.09792969 3.77273437 -0.09792969 3.77273437 -0.0703125 2.265625 C-0.04710937 1.51796875 -0.02390625 0.7703125 0 0 Z " fill="#F4BD6C" transform="translate(15,28)"/>
<path d="M0 0 C0.33 0 0.66 0 1 0 C1 4.29 1 8.58 1 13 C-0.32 13 -1.64 13 -3 13 C-3.33 14.32 -3.66 15.64 -4 17 C-4 16.34 -4 15.68 -4 15 C-4.66 15 -5.32 15 -6 15 C-6.04125 15.5775 -6.0825 16.155 -6.125 16.75 C-7.47957626 20.23319609 -9.77732812 21.29387959 -13 23 C-15.19921875 22.60546875 -15.19921875 22.60546875 -17 22 C-16.46890625 21.79246094 -15.9378125 21.58492187 -15.390625 21.37109375 C-9.71653672 18.89644576 -7.58975213 16.61112962 -5 11 C-3.35 11.33 -1.7 11.66 0 12 C0 8.04 0 4.08 0 0 Z " fill="#FAE4C7" transform="translate(87,20)"/>
<path d="M0 0 C5.21970706 -0.52197071 5.21970706 -0.52197071 8 0 C10.375 2.75 10.375 2.75 12 6 C12.4125 6.78375 12.825 7.5675 13.25 8.375 C13.4975 8.91125 13.745 9.4475 14 10 C13.67 10 13.34 10 13 10 C12.87625 11.134375 12.7525 12.26875 12.625 13.4375 C12.41875 14.613125 12.2125 15.78875 12 17 C11.34 17.33 10.68 17.66 10 18 C9.93941406 17.16855469 9.87882812 16.33710938 9.81640625 15.48046875 C9.73261719 14.39378906 9.64882812 13.30710937 9.5625 12.1875 C9.48128906 11.10855469 9.40007812 10.02960937 9.31640625 8.91796875 C9.09787539 5.94010095 9.09787539 5.94010095 8 3 C6.14255793 2.38932856 6.14255793 2.38932856 4 2 C2.6520257 1.36345658 1.31403276 0.70394612 0 0 Z " fill="#F6D097" transform="translate(68,10)"/>
<path d="M0 0 C1.8871875 0.0309375 1.8871875 0.0309375 3.8125 0.0625 C3.8125 0.3925 3.8125 0.7225 3.8125 1.0625 C0.5125 1.7225 -2.7875 2.3825 -6.1875 3.0625 C-6.8475 6.3625 -7.5075 9.6625 -8.1875 13.0625 C-6.2075 13.7225 -4.2275 14.3825 -2.1875 15.0625 C-3.9375 15.8125 -3.9375 15.8125 -6.1875 16.0625 C-8.4375 14.5625 -8.4375 14.5625 -10.1875 12.0625 C-10.65668683 8.30900538 -10.71886381 6.02401547 -8.875 2.6875 C-6.15673179 0.06990839 -3.59620528 -0.05895418 0 0 Z " fill="#F5CA7E" transform="translate(24.1875,8.9375)"/>
<path d="M0 0 C2.05078125 0.03255208 4.1015625 0.06510417 6.15234375 0.09765625 C6.15234375 0.75765625 6.15234375 1.41765625 6.15234375 2.09765625 C4.17234375 2.42765625 2.19234375 2.75765625 0.15234375 3.09765625 C-0.17765625 6.39765625 -0.50765625 9.69765625 -0.84765625 13.09765625 C-1.50765625 13.09765625 -2.16765625 13.09765625 -2.84765625 13.09765625 C-2.87452178 11.11856227 -2.89399 9.13936654 -2.91015625 7.16015625 C-2.92175781 6.05800781 -2.93335938 4.95585937 -2.9453125 3.8203125 C-2.81361949 0.14871139 -2.81361949 0.14871139 0 0 Z " fill="#F2B159" transform="translate(60.84765625,16.90234375)"/>
<path d="M0 0 C4.62 0.66 9.24 1.32 14 2 C14 2.33 14 2.66 14 3 C12.02 3.33 10.04 3.66 8 4 C10.64 4.33 13.28 4.66 16 5 C16 5.33 16 5.66 16 6 C9.34454208 6.54330269 5.54165256 5.77304004 0 2 C0 1.34 0 0.68 0 0 Z " fill="#F6D091" transform="translate(54,38)"/>
<path d="M0 0 C0.90492187 0.02320313 1.80984375 0.04640625 2.7421875 0.0703125 C4.10730469 0.09738281 4.10730469 0.09738281 5.5 0.125 C6.19867188 0.14820313 6.89734375 0.17140625 7.6171875 0.1953125 C7.6171875 0.8553125 7.6171875 1.5153125 7.6171875 2.1953125 C8.9371875 2.5253125 10.2571875 2.8553125 11.6171875 3.1953125 C7.49550061 4.82481662 4.91018393 5.45795851 0.6171875 4.1953125 C0.6171875 3.8653125 0.6171875 3.5353125 0.6171875 3.1953125 C-1.0328125 2.8653125 -2.6828125 2.5353125 -4.3828125 2.1953125 C-2.3828125 0.1953125 -2.3828125 0.1953125 0 0 Z " fill="#F3B661" transform="translate(60.3828125,8.8046875)"/>
<path d="M0 0 C0.99 0 1.98 0 3 0 C3 3.96 3 7.92 3 12 C2.01 12 1.02 12 0 12 C0 8.04 0 4.08 0 0 Z " fill="#FEFCFA" transform="translate(84,20)"/>
<path d="M0 0 C0.33 0 0.66 0 1 0 C1 2.97 1 5.94 1 9 C-0.32 9.33 -1.64 9.66 -3 10 C-3 13.96 -3 17.92 -3 22 C-2.01 22.33 -1.02 22.66 0 23 C-4.75 22.25 -4.75 22.25 -7 20 C-6.34 19.67 -5.68 19.34 -5 19 C-4.53248212 16.64400765 -4.53248212 16.64400765 -4.375 13.9375 C-4.30023438 13.01839844 -4.22546875 12.09929688 -4.1484375 11.15234375 C-4.09945312 10.44207031 -4.05046875 9.73179688 -4 9 C-3.01 8.67 -2.02 8.34 -1 8 C-0.67 5.36 -0.34 2.72 0 0 Z " fill="#FAE5CA" transform="translate(142,12)"/>
<path d="M0 0 C0.66 0 1.32 0 2 0 C2.33 2.97 2.66 5.94 3 9 C3.66 9 4.32 9 5 9 C3.60755361 11.78489278 1.44008012 13.12301529 -1 15 C-1 13.68 -1 12.36 -1 11 C-0.34 11 0.32 11 1 11 C1 8.36 1 5.72 1 3 C0.34 3 -0.32 3 -1 3 C-0.67 2.01 -0.34 1.02 0 0 Z " fill="#FBE9CE" transform="translate(45,24)"/>
<path d="M0 0 C0 1.98 0 3.96 0 6 C-1.65 6 -3.3 6 -5 6 C-5.66 4.68 -6.32 3.36 -7 2 C-4 0 -4 0 0 0 Z " fill="#EF9F36" transform="translate(40,12)"/>
<path d="M0 0 C1.28332064 2.56664129 1.02830743 4.32509181 0.9375 7.1875 C0.8815955 11.90832416 1.4243009 15.56834629 3 20 C2.34 20 1.68 20 1 20 C1 19.34 1 18.68 1 18 C0.34 18 -0.32 18 -1 18 C-1.02684312 15.18743719 -1.04676188 12.37512759 -1.0625 9.5625 C-1.07087891 8.76005859 -1.07925781 7.95761719 -1.08789062 7.13085938 C-1.0965143 5.08704779 -1.0522815 3.04316098 -1 1 C-0.67 0.67 -0.34 0.34 0 0 Z " fill="#F4BD64" transform="translate(49,15)"/>
<path d="M0 0 C0.33 0 0.66 0 1 0 C1 3.63 1 7.26 1 11 C-1.97 11 -4.94 11 -8 11 C-8 10.34 -8 9.68 -8 9 C-5.69 8.34 -3.38 7.68 -1 7 C-0.67 4.69 -0.34 2.38 0 0 Z " fill="#F2AF56" transform="translate(118,14)"/>
<path d="M0 0 C2.97 0 5.94 0 9 0 C9 1.32 9 2.64 9 4 C9.66 4 10.32 4 11 4 C11 4.66 11 5.32 11 6 C9.0625 5.6875 9.0625 5.6875 7 5 C6.67 4.01 6.34 3.02 6 2 C4.35 2 2.7 2 1 2 C0.67 1.34 0.34 0.68 0 0 Z " fill="#FBEED7" transform="translate(100,21)"/>
<path d="M0 0 C0.33 0.99 0.66 1.98 1 3 C0.01 2.67 -0.98 2.34 -2 2 C-3.89470816 1.9314505 -5.7916834 1.91519628 -7.6875 1.9375 C-8.68136719 1.94652344 -9.67523438 1.95554687 -10.69921875 1.96484375 C-11.45847656 1.97644531 -12.21773437 1.98804688 -13 2 C-13.33 1.34 -13.66 0.68 -14 0 C-9.32517708 -1.49594333 -4.64398011 -1.54799337 0 0 Z " fill="#F9DFB8" transform="translate(44,10)"/>
<path d="M0 0 C1.32 0 2.64 0 4 0 C4 1.98 4 3.96 4 6 C2.02 6 0.04 6 -2 6 C-1.34 4.02 -0.68 2.04 0 0 Z " fill="#EF9E36" transform="translate(110,30)"/>
<path d="M0 0 C1.13869156 2.7949702 1.06846818 3.82681578 -0.0625 6.6875 C-2 9 -2 9 -5.1875 9.8125 C-6.115625 9.874375 -7.04375 9.93625 -8 10 C-4.25 5.125 -4.25 5.125 -2 4 C-0.86649466 1.98330173 -0.86649466 1.98330173 0 0 Z " fill="#F4C47B" transform="translate(79,27)"/>
<path d="M0 0 C0.12375 0.639375 0.2475 1.27875 0.375 1.9375 C0.58125 2.618125 0.7875 3.29875 1 4 C1.66 4.33 2.32 4.66 3 5 C3 4.01 3 3.02 3 2 C4.65 2.33 6.3 2.66 8 3 C8 3.66 8 4.32 8 5 C5 7 5 7 2.3125 6.625 C1.549375 6.41875 0.78625 6.2125 0 6 C-0.38218767 4.34385343 -0.71395102 2.67542976 -1 1 C-0.67 0.67 -0.34 0.34 0 0 Z " fill="#F3BA69" transform="translate(23,14)"/>
<path d="M0 0 C3.3 0.33 6.6 0.66 10 1 C10 1.66 10 2.32 10 3 C2.25 4.125 2.25 4.125 0 3 C0 2.01 0 1.02 0 0 Z " fill="#F8DCAD" transform="translate(32,18)"/>
<path d="M0 0 C0.66 1.32 1.32 2.64 2 4 C2.66 4 3.32 4 4 4 C4 4.66 4 5.32 4 6 C6.64 6 9.28 6 12 6 C12 6.33 12 6.66 12 7 C10.37509046 7.02698189 8.75005367 7.04638757 7.125 7.0625 C5.76761719 7.07990234 5.76761719 7.07990234 4.3828125 7.09765625 C2 7 2 7 0 6 C0 4.02 0 2.04 0 0 Z " fill="#F6CE91" transform="translate(96,27)"/>
<path d="M0 0 C0.66 0 1.32 0 2 0 C2 1.98 2 3.96 2 6 C-0.64 6 -3.28 6 -6 6 C-6 5.34 -6 4.68 -6 4 C-4.02 4 -2.04 4 0 4 C0 2.68 0 1.36 0 0 Z " fill="#F1AD53" transform="translate(104,25)"/>
<path d="M0 0 C1.68496298 0.96885372 3.35178756 1.96986723 5 3 C5 3.33 5 3.66 5 4 C3.35 4.33 1.7 4.66 0 5 C-0.33 7.97 -0.66 10.94 -1 14 C-1.33 14 -1.66 14 -2 14 C-2.05437607 12.41705218 -2.09296271 10.83355744 -2.125 9.25 C-2.14820313 8.36828125 -2.17140625 7.4865625 -2.1953125 6.578125 C-1.99139502 3.8864142 -1.36551721 2.30095026 0 0 Z " fill="#F9DFAC" transform="translate(16,23)"/>
<path d="M0 0 C0.66 0 1.32 0 2 0 C2 3.3 2 6.6 2 10 C0.68 9.67 -0.64 9.34 -2 9 C-1.34 6.03 -0.68 3.06 0 0 Z " fill="#F2B658" transform="translate(42,14)"/>
<path d="M0 0 C0.33 0 0.66 0 1 0 C1.04898437 0.65226562 1.09796875 1.30453125 1.1484375 1.9765625 C1.57242229 6.93279853 2.15665573 11.33019451 4 16 C3.34 16 2.68 16 2 16 C-0.42130331 12.36804504 -0.21022785 10.61650652 -0.125 6.3125 C-0.09792969 4.54326172 -0.09792969 4.54326172 -0.0703125 2.73828125 C-0.04710937 1.83464844 -0.02390625 0.93101563 0 0 Z " fill="#FCF1D8" transform="translate(13,27)"/>
<path d="M0 0 C0.66 0 1.32 0 2 0 C2 1.98 2 3.96 2 6 C0.02 6.33 -1.96 6.66 -4 7 C-4 6.01 -4 5.02 -4 4 C-2.68 4 -1.36 4 0 4 C0 2.68 0 1.36 0 0 Z " fill="#F1AA50" transform="translate(140,13)"/>
<path d="M0 0 C0.99 0.33 1.98 0.66 3 1 C2.01 1.33 1.02 1.66 0 2 C0 2.66 0 3.32 0 4 C1.32 4 2.64 4 4 4 C3.67 5.32 3.34 6.64 3 8 C3 7.01 3 6.02 3 5 C1.02 5 -0.96 5 -3 5 C-1.125 1.125 -1.125 1.125 0 0 Z " fill="#F5C781" transform="translate(22,35)"/>
<path d="M0 0 C1.32 0.66 2.64 1.32 4 2 C3.34 2 2.68 2 2 2 C2 3.32 2 4.64 2 6 C0.02 6 -1.96 6 -4 6 C-4 5.34 -4 4.68 -4 4 C-2.68 4 -1.36 4 0 4 C0 2.68 0 1.36 0 0 Z " fill="#F6D193" transform="translate(138,11)"/>
<path d="M0 0 C1.98 0 3.96 0 6 0 C6.33 1.32 6.66 2.64 7 4 C6.01 4 5.02 4 4 4 C4 3.34 4 2.68 4 2 C2.68 2 1.36 2 0 2 C0 1.34 0 0.68 0 0 Z " fill="#F7D69F" transform="translate(22,37)"/>
<path d="M0 0 C2.64 0 5.28 0 8 0 C8 0.66 8 1.32 8 2 C5.36 2.33 2.72 2.66 0 3 C0 2.01 0 1.02 0 0 Z " fill="#F2AC52" transform="translate(98,17)"/>
<path d="M0 0 C0.33 0.99 0.66 1.98 1 3 C1.66 3 2.32 3 3 3 C3 3.99 3 4.98 3 6 C2.34 6 1.68 6 1 6 C1 7.98 1 9.96 1 12 C0.67 12 0.34 12 0 12 C0 8.04 0 4.08 0 0 Z " fill="#F5C683" transform="translate(119,31)"/>
<path d="M0 0 C1.32 0.66 2.64 1.32 4 2 C4 2.99 4 3.98 4 5 C1.36 4.34 -1.28 3.68 -4 3 C-2.68 2.01 -1.36 1.02 0 0 Z " fill="#F7D6A2" transform="translate(20,25)"/>
</svg>
